<svg width="64" height="64" viewBox="0 0 64 64" fill="none" xmlns="http://www.w3.org/2000/svg">
<circle cx="32" cy="32" r="32" fill="white"/>
<path fill-rule="evenodd" clip-rule="evenodd" d="M32 64C14.326 64 0 49.674 0 32C0 14.326 14.326 0 32 0C49.674 0 64 14.326 64 32C64 49.674 49.674 64 32 64ZM42.472 21.382C40.918 17.438 37.028 17.082 32.496 17.962L30.882 12.336L27.458 13.318L29.028 18.798C28.128 19.054 27.214 19.336 26.304 19.618L24.724 14.102L21.3 15.082L22.912 20.708C22.174 20.936 21.452 21.158 20.74 21.362L20.736 21.346L16.012 22.698L17.062 26.356C17.062 26.356 19.576 25.582 19.548 25.642C20.934 25.242 21.618 25.92 21.948 26.576L23.788 32.986C23.882 32.96 24.008 32.926 24.156 32.906L23.794 33.01L26.368 41.99C26.432 42.444 26.374 43.214 25.406 43.494C25.46 43.52 22.916 44.206 22.916 44.206L23.408 48.492L27.866 47.212C28.694 46.976 29.514 46.756 30.318 46.532L31.95 52.222L35.37 51.242L33.758 45.612C34.6747 45.3686 35.5888 45.1152 36.5 44.852L38.106 50.458L41.53 49.476L39.904 43.796C45.566 41.814 49.18 39.208 48.13 33.656C47.286 29.188 44.68 27.832 41.186 27.984C42.882 26.404 43.614 24.266 42.472 21.382ZM41.17 34.922C42.39 39.176 34.97 40.78 32.65 41.448L30.49 33.908C32.81 33.242 39.898 30.488 41.17 34.924V34.922ZM36.526 24.742C37.634 28.612 31.432 29.902 29.5 30.456L27.54 23.618C29.472 23.064 35.368 20.708 36.526 24.742Z" fill="url(#paint0_linear)"/>
<defs>
<linearGradient id="paint0_linear" x1="7.5" y1="54" x2="54.5" y2="9" gradientUnits="userSpaceOnUse">
<stop stop-color="#56B88E"/>
<stop offset="1" stop-color="#54B78C" stop-opacity="0.7"/>
</linearGradient>
</defs>
</svg>
