<svg width="64" height="64" viewBox="0 0 64 64" fill="none" xmlns="http://www.w3.org/2000/svg">
<circle cx="32" cy="32" r="32" fill="white"/>
<path fill-rule="evenodd" clip-rule="evenodd" d="M32 64C14.326 64 0 49.674 0 32C0 14.326 14.326 0 32 0C49.674 0 64 14.326 64 32C64 49.674 49.674 64 32 64ZM46.378 28.04C47.006 23.848 43.812 21.594 39.448 20.09L40.864 14.41L37.408 13.55L36.028 19.08C35.12 18.852 34.188 18.64 33.258 18.428L34.648 12.862L31.192 12L29.776 17.678C29.024 17.506 28.284 17.338 27.568 17.158L27.572 17.14L22.804 15.95L21.884 19.642C21.884 19.642 24.45 20.23 24.396 20.266C25.796 20.616 26.048 21.542 26.006 22.278L24.394 28.748C24.49 28.772 24.614 28.808 24.754 28.862L24.388 28.772L22.128 37.836C21.956 38.26 21.522 38.898 20.542 38.656C20.578 38.706 18.03 38.03 18.03 38.03L16.314 41.986L20.814 43.108C21.65 43.318 22.47 43.538 23.276 43.744L21.846 49.488L25.3 50.348L26.716 44.668C27.66 44.922 28.576 45.158 29.472 45.382L28.06 51.038L31.516 51.898L32.946 46.166C38.842 47.282 43.274 46.832 45.14 41.5C46.644 37.208 45.066 34.73 41.964 33.116C44.224 32.596 45.924 31.11 46.378 28.04ZM38.478 39.116C37.412 43.41 30.182 41.088 27.838 40.506L29.738 32.896C32.082 33.482 39.596 34.64 38.478 39.116ZM39.548 27.978C38.574 31.884 32.558 29.898 30.608 29.412L32.328 22.512C34.278 22.998 40.564 23.904 39.548 27.978Z" fill="url(#paint0_linear)"/>
<defs>
<linearGradient id="paint0_linear" x1="52" y1="5" x2="10" y2="57" gradientUnits="userSpaceOnUse">
<stop stop-color="#EA973D" stop-opacity="0.72"/>
<stop offset="1" stop-color="#EA973D"/>
</linearGradient>
</defs>
</svg>
