<svg width="64" height="64" viewBox="0 0 64 64" fill="none" xmlns="http://www.w3.org/2000/svg">
<circle cx="32" cy="32" r="32" fill="url(#paint0_linear)"/>
<circle cx="32" cy="32" r="32" fill="white"/>
<path fill-rule="evenodd" clip-rule="evenodd" d="M32 64C14.326 64 0 49.674 0 32C0 14.326 14.326 0 32 0C49.674 0 64 14.326 64 32C64 49.674 49.674 64 32 64ZM20.964 33.792V48H34.062C36.482 48 38.576 47.58 40.346 46.746C42.116 45.908 43.56 44.766 44.682 43.316C45.802 41.868 46.636 40.172 47.182 38.23C47.728 36.288 48 34.21 48 32C48.0137 29.8956 47.7378 27.7992 47.18 25.77C46.636 23.83 45.802 22.132 44.68 20.684C43.56 19.234 42.116 18.092 40.346 17.254C38.576 16.42 36.48 16 34.06 16H20.962V29.22H18V33.792H20.964ZM26.496 29.222V20.572H31.938C34.092 20.572 35.854 20.862 37.226 21.446C38.598 22.028 39.674 22.834 40.456 23.866C41.2558 24.9392 41.8003 26.1807 42.048 27.496C42.328 28.886 42.468 30.386 42.468 32C42.4776 33.5115 42.337 35.0203 42.048 36.504C41.768 37.894 41.238 39.104 40.456 40.134C39.674 41.166 38.596 41.972 37.226 42.554C35.854 43.138 34.092 43.428 31.938 43.428H26.496V33.792H35.124V29.222H26.496Z" fill="url(#paint1_linear)"/>
<defs>
<linearGradient id="paint0_linear" x1="10.8926" y1="56.3926" x2="51.8926" y2="6.89258" gradientUnits="userSpaceOnUse">
<stop stop-color="#B4A148"/>
<stop offset="0.947917" stop-color="#CEC288"/>
</linearGradient>
<linearGradient id="paint1_linear" x1="8" y1="54" x2="56" y2="10.5" gradientUnits="userSpaceOnUse">
<stop stop-color="#B19E42"/>
<stop offset="1" stop-color="#B19E42" stop-opacity="0.58"/>
</linearGradient>
</defs>
</svg>
