<svg width="64" height="64" viewBox="0 0 64 64" fill="none" xmlns="http://www.w3.org/2000/svg">
<circle cx="32" cy="32" r="32" fill="white"/>
<path d="M32 64C14.326 64 0 49.674 0 32C0 14.326 14.326 0 32 0C49.674 0 64 14.326 64 32C64 49.674 49.674 64 32 64ZM21.144 23.094L16.204 45.662C16.1678 45.8003 16.1786 45.9466 16.2347 46.0781C16.2908 46.2095 16.3891 46.3185 16.514 46.388L31.66 55.878C31.772 55.948 31.892 55.978 32.006 55.978C32.1293 55.9792 32.2502 55.9445 32.354 55.878L47.5 46.388C47.6245 46.3182 47.7224 46.2091 47.7781 46.0777C47.8339 45.9462 47.8444 45.8 47.808 45.662L42.868 23.094C42.8492 22.9998 42.8096 22.9109 42.752 22.834L32.532 8.87C32.4729 8.78599 32.394 8.71792 32.3022 8.67185C32.2104 8.62579 32.1087 8.60316 32.006 8.606C31.9037 8.60349 31.8023 8.62628 31.7109 8.67233C31.6195 8.71838 31.5409 8.78628 31.482 8.87L21.262 22.836C21.2037 22.9127 21.1634 23.0016 21.144 23.096V23.094ZM18.354 41.828L21.888 25.688L23.908 32.03L18.354 41.828ZM17.922 45.188L24.436 33.692L28.096 45.186H17.92L17.922 45.188ZM19.052 46.468H28.504L30.86 53.866L19.052 46.466V46.468ZM24.766 30.512L22.48 23.336L31.36 11.206V18.878L24.766 30.512ZM32.006 53.25L29.846 46.466H34.166L32.006 53.25ZM33.154 53.866L35.51 46.466H44.962L33.154 53.866ZM42.126 25.688L45.658 41.828L40.106 32.03L42.126 25.69V25.688ZM39.246 30.512L32.654 18.88V11.206L41.534 23.336L39.246 30.512ZM46.09 45.186H35.92L39.58 33.692L46.092 45.186H46.09ZM32.006 20.332L38.718 32.174L34.574 45.186H29.44L25.296 32.174L32.006 20.332Z" fill="url(#paint0_linear)"/>
<defs>
<linearGradient id="paint0_linear" x1="8" y1="53.5" x2="56.5" y2="10.5" gradientUnits="userSpaceOnUse">
<stop stop-color="#265BDB"/>
<stop offset="1" stop-color="#1A53DB" stop-opacity="0.56"/>
</linearGradient>
</defs>
</svg>
