<svg width="64" height="64" viewBox="0 0 64 64" fill="none" xmlns="http://www.w3.org/2000/svg">
<circle cx="32" cy="32" r="32" fill="white"/>
<path d="M32 0C49.674 0 64 14.326 64 32C64 49.674 49.674 64 32 64C14.326 64 0 49.674 0 32C0 14.326 14.326 0 32 0ZM38.704 11.12C38.216 10.88 37.728 11.12 37.608 11.606C37.486 11.728 37.486 11.85 37.486 12.092V13.792L37.506 14C37.6104 14.4115 37.8633 14.7698 38.216 15.006C47.724 18.406 52.6 28.966 49.064 38.312C47.236 43.412 43.214 47.294 38.216 49.116C37.728 49.358 37.486 49.722 37.486 50.33V52.03L37.496 52.206C37.515 52.3981 37.5953 52.5789 37.7249 52.7219C37.8546 52.8648 38.0267 52.9623 38.216 53C38.338 53 38.582 53 38.704 52.88C41.4471 52.0234 43.9937 50.6325 46.1972 48.7877C48.4006 46.9428 50.2173 44.6802 51.5427 42.1303C52.8681 39.5805 53.6761 36.7936 53.92 33.9301C54.1639 31.0667 53.839 28.1833 52.964 25.446C50.772 18.526 45.408 13.306 38.704 11.122V11.12ZM25.784 11C25.662 11 25.418 11 25.296 11.12C22.5529 11.9766 20.0063 13.3675 17.8028 15.2123C15.5994 17.0572 13.7827 19.3198 12.4573 21.8697C11.1319 24.4195 10.3239 27.2064 10.08 30.0699C9.83609 32.9333 10.161 35.8167 11.036 38.554C13.228 45.354 18.47 50.574 25.296 52.758C25.784 53 26.272 52.758 26.392 52.272C26.514 52.152 26.514 52.028 26.514 51.786V50.086L26.494 49.926C26.41 49.588 26.096 49.202 25.784 48.994C16.276 45.594 11.4 35.034 14.936 25.688C16.764 20.588 20.786 16.706 25.784 14.884C26.272 14.642 26.514 14.278 26.514 13.67V11.97L26.504 11.794C26.485 11.6019 26.4047 11.4211 26.2751 11.2781C26.1454 11.1352 25.9733 11.0377 25.784 11ZM32.854 17.312H31.024L30.848 17.328C30.448 17.408 30.156 17.752 30.048 18.284V21.076L29.634 21.14C26.218 21.748 24.078 24.106 24.078 27.024C24.078 31.028 26.514 32.606 31.634 33.214C35.048 33.82 36.144 34.55 36.144 36.492C36.144 38.432 34.438 39.768 32.122 39.768C28.952 39.768 27.856 38.434 27.49 36.612C27.37 36.128 27.002 35.884 26.636 35.884H24.564L24.406 35.898C24.2088 35.9299 24.0298 36.0321 23.9022 36.1858C23.7746 36.3395 23.707 36.5343 23.712 36.734V36.854L23.778 37.214C24.358 40.062 26.31 42.1 30.172 42.682V45.596L30.188 45.772C30.268 46.168 30.614 46.46 31.148 46.566H32.976L33.152 46.55C33.552 46.47 33.844 46.126 33.952 45.596V42.68L34.366 42.6C37.792 41.876 40.046 39.398 40.046 36.246C40.046 31.998 37.486 30.542 32.366 29.934C28.708 29.448 27.978 28.478 27.978 26.778C27.978 25.078 29.198 23.986 31.634 23.986C33.828 23.986 35.048 24.714 35.656 26.536C35.7194 26.7122 35.8352 26.8647 35.9879 26.9731C36.1406 27.0814 36.3228 27.1404 36.51 27.142H38.46L38.618 27.13C38.8159 27.0985 38.9957 26.9962 39.1237 26.842C39.2518 26.6878 39.3194 26.4923 39.314 26.292V26.172L39.24 25.826C38.9397 24.5828 38.255 23.466 37.2834 22.6344C36.3118 21.8028 35.1026 21.2988 33.828 21.194V18.284L33.812 18.108C33.732 17.71 33.386 17.418 32.852 17.312H32.854Z" fill="url(#paint0_linear)"/>
<defs>
<linearGradient id="paint0_linear" x1="7" y1="53" x2="57" y2="10" gradientUnits="userSpaceOnUse">
<stop stop-color="#3971BE"/>
<stop offset="0.983703" stop-color="#3971BE" stop-opacity="0.7"/>
</linearGradient>
</defs>
</svg>
