<svg width="64" height="64" viewBox="0 0 64 64" fill="none" xmlns="http://www.w3.org/2000/svg">
<circle cx="32" cy="32" r="32" fill="url(#paint0_linear)"/>
<path d="M34.9056 27.2368V23.1784H44.1806V17H18.9296V23.1784H28.2046V27.2368C20.6711 27.585 15 29.0767 15 30.8635C15 32.6504 20.6711 34.142 28.2047 34.4903V47.475H34.9131V34.4903C42.4392 34.142 48.0951 32.65 48.0951 30.8635C48.0875 29.076 42.4316 27.585 34.9055 27.2368H34.9056ZM34.9132 33.3924C34.724 33.4 33.7547 33.4605 31.5894 33.4605C29.8555 33.4605 28.644 33.4151 28.2125 33.3924V33.4C21.5571 33.1048 16.5826 31.9463 16.5826 30.5606C16.5826 29.175 21.55 28.0166 28.2125 27.7213V32.2338C28.6516 32.264 29.8934 32.3398 31.6198 32.3398C33.6868 32.3398 34.7241 32.2565 34.921 32.2338V27.7061C41.5687 28.0014 46.5281 29.1599 46.5281 30.5455C46.513 31.9311 41.5531 33.0895 34.9134 33.3924" fill="white"/>
<defs>
<linearGradient id="paint0_linear" x1="10.8926" y1="56.3926" x2="51.8926" y2="6.89258" gradientUnits="userSpaceOnUse">
<stop stop-color="#68AD96"/>
<stop offset="0.947917" stop-color="#68AD96" stop-opacity="0.67"/>
</linearGradient>
</defs>
</svg>
