<svg width="64" height="64" viewBox="0 0 64 64" fill="none" xmlns="http://www.w3.org/2000/svg">
<circle cx="32" cy="32" r="32" fill="white"/>
<path d="M32 64C14.326 64 0 49.674 0 32C0 14.326 14.326 0 32 0C49.674 0 64 14.326 64 32C64 49.674 49.674 64 32 64ZM46.26 18.584L41.46 21.032L18.264 32.846C17.9335 30.3072 18.3149 27.7265 19.3655 25.3917C20.4162 23.057 22.0948 21.0601 24.2142 19.6237C26.3336 18.1874 28.8103 17.3681 31.3681 17.2573C33.926 17.1464 36.4643 17.7484 38.7 18.996L41.448 17.596L41.858 17.386C39.251 15.4942 36.1571 14.3879 32.9417 14.1977C29.7262 14.0075 26.5235 14.7414 23.7117 16.3127C20.8999 17.884 18.5964 20.2271 17.0733 23.0653C15.5502 25.9035 14.871 29.1183 15.116 32.33C15.1618 32.9341 15.0279 33.5383 14.7311 34.0664C14.4343 34.5945 13.9879 35.0231 13.448 35.298L11.998 36.038V39.486L16.266 37.31L17.648 36.604L19.01 35.91L43.462 23.45L46.21 22.052L51.89 19.158V15.712L46.26 18.584ZM51.892 22.608L20.402 38.64L17.654 40.04L12 42.926V46.372L17.616 43.512L22.418 41.064L45.638 29.232C45.9735 31.7747 45.5948 34.3606 44.5441 36.7003C43.4935 39.04 41.8124 41.0411 39.6891 42.4796C37.5657 43.9181 35.0839 44.7373 32.5215 44.8455C29.959 44.9536 27.417 44.3465 25.18 43.092L25.01 43.182L22.03 44.702C24.6374 46.5949 27.7321 47.7019 30.9485 47.8922C34.1649 48.0825 37.3685 47.3482 40.181 45.7761C42.9934 44.2039 45.2971 41.8596 46.8198 39.0201C48.3425 36.1806 49.0206 32.9646 48.774 29.752C48.7286 29.1485 48.8626 28.545 49.159 28.0173C49.4554 27.4897 49.901 27.0613 50.44 26.786L51.892 26.046V22.61V22.608Z" fill="url(#paint0_linear)"/>
<defs>
<linearGradient id="paint0_linear" x1="11" y1="55" x2="58.5" y2="12.5" gradientUnits="userSpaceOnUse">
<stop stop-color="#4AA3D7"/>
<stop offset="0.988959" stop-color="#4AA3D7" stop-opacity="0.65"/>
</linearGradient>
</defs>
</svg>
