<svg width="64" height="64" viewBox="0 0 64 64" fill="none" xmlns="http://www.w3.org/2000/svg">
<circle cx="32" cy="32" r="32" fill="white"/>
<path fill-rule="evenodd" clip-rule="evenodd" d="M32 64C14.326 64 0 49.674 0 32C0 14.326 14.326 0 32 0C49.674 0 64 14.326 64 32C64 49.674 49.674 64 32 64ZM31.94 10.47C29.0969 10.4684 26.2814 11.0273 23.6544 12.1147C21.0275 13.2021 18.6406 14.7967 16.6304 16.8073C14.6202 18.8178 13.0261 21.205 11.9392 23.8321C10.8523 26.4593 10.2939 29.2749 10.296 32.118C10.296 34.522 10.706 36.81 11.41 38.982H17.864V20.794L31.944 34.874L46.024 20.794V38.982H52.476C53.2073 36.7671 53.5839 34.4505 53.592 32.118C53.592 20.15 43.912 10.47 31.944 10.47H31.94ZM28.716 38.04L22.556 31.88V43.32H13.462C17.274 49.54 24.138 53.704 31.942 53.704C39.744 53.704 46.666 49.54 50.422 43.32H41.328V31.88L35.228 38.04L32 41.27L28.714 38.042L28.716 38.04Z" fill="url(#paint0_linear)"/>
<defs>
<linearGradient id="paint0_linear" x1="6" y1="50.5" x2="56" y2="10.5" gradientUnits="userSpaceOnUse">
<stop stop-color="#DA6B36"/>
<stop offset="1" stop-color="#DA6B36" stop-opacity="0.79"/>
</linearGradient>
</defs>
</svg>
