<svg width="64" height="64" viewBox="0 0 64 64" fill="none" xmlns="http://www.w3.org/2000/svg">
<circle cx="32" cy="32" r="32" fill="white"/>
<path d="M32 64C14.326 64 0 49.674 0 32C0 14.326 14.326 0 32 0C49.674 0 64 14.326 64 32C64 49.674 49.674 64 32 64ZM46.14 16L36.992 25.046C35.661 26.3597 33.8661 27.0963 31.996 27.0963C30.1259 27.0963 28.331 26.3597 27 25.046L17.86 16H12.07L24.11 27.914C26.2133 29.9862 29.0474 31.1479 32 31.1479C34.9526 31.1479 37.7867 29.9862 39.89 27.914L51.922 16H46.14ZM17.79 49.126L27.008 40C28.339 38.6863 30.1339 37.9497 32.004 37.9497C33.8741 37.9497 35.669 38.6863 37 40L46.21 49.126H52L39.89 37.14C37.7867 35.0678 34.9526 33.9062 32 33.9062C29.0474 33.9062 26.2133 35.0678 24.11 37.14L12 49.124L17.79 49.126Z" fill="url(#paint0_linear)"/>
<defs>
<linearGradient id="paint0_linear" x1="9" y1="55" x2="56" y2="6" gradientUnits="userSpaceOnUse">
<stop stop-color="#3576A7"/>
<stop offset="1" stop-color="#6D99BB" stop-opacity="0.87"/>
</linearGradient>
</defs>
</svg>
